<svg xmlns="http://www.w3.org/2000/svg" viewBox="0 0 35.858 34.974"><path d="M17.929,0a17.931,17.931,0,0,0-5.667,34.941c.9.164,1.223-.39,1.223-.862,0-.427-.016-1.841-.025-3.338-4.986,1.083-6.04-2.114-6.04-2.114A4.754,4.754,0,0,0,5.43,26.005c-1.629-1.112.124-1.09.124-1.09A3.763,3.763,0,0,1,8.3,26.762a3.816,3.816,0,0,0,5.218,1.488,3.833,3.833,0,0,1,1.138-2.394c-3.98-.453-8.167-1.992-8.167-8.862a6.941,6.941,0,0,1,1.844-4.812,6.458,6.458,0,0,1,.177-4.747s1.5-.481,4.931,1.838a16.973,16.973,0,0,1,8.976,0c3.421-2.322,4.927-1.838,4.927-1.838a6.431,6.431,0,0,1,.179,4.745,6.921,6.921,0,0,1,1.843,4.812c0,6.888-4.193,8.4-8.188,8.849A4.271,4.271,0,0,1,22.4,29.161c0,2.4-.024,4.329-.024,4.92,0,.477.326,1.035,1.234.86A17.932,17.932,0,0,0,17.929,0Z" transform="translate(0 0)"/></svg>